<mxfile host="Electron" agent="Mozilla/5.0 (Windows NT 10.0; Win64; x64) AppleWebKit/537.36 (KHTML, like Gecko) draw.io/28.1.2 Chrome/138.0.7204.243 Electron/37.4.0 Safari/537.36" version="28.1.2" pages="4">
  <diagram name="Страница — 1" id="NsbgQ4nrzk3-ylXnO_c1">
    <mxGraphModel dx="1042" dy="626" grid="1" gridSize="10" guides="1" tooltips="1" connect="1" arrows="1" fold="1" page="1" pageScale="1" pageWidth="827" pageHeight="1169" math="0" shadow="0">
      <root>
        <mxCell id="0" />
        <mxCell id="1" parent="0" />
        <mxCell id="EL1nMnf3tuZ-VRps-a8O-2" style="edgeStyle=orthogonalEdgeStyle;rounded=0;orthogonalLoop=1;jettySize=auto;html=1;exitX=0.5;exitY=1;exitDx=0;exitDy=0;" edge="1" parent="1" source="EL1nMnf3tuZ-VRps-a8O-1">
          <mxGeometry relative="1" as="geometry">
            <mxPoint x="414" y="130" as="targetPoint" />
          </mxGeometry>
        </mxCell>
        <mxCell id="EL1nMnf3tuZ-VRps-a8O-1" value="Начало" style="ellipse;whiteSpace=wrap;html=1;" vertex="1" parent="1">
          <mxGeometry x="354" width="120" height="80" as="geometry" />
        </mxCell>
        <mxCell id="EL1nMnf3tuZ-VRps-a8O-4" style="edgeStyle=orthogonalEdgeStyle;rounded=0;orthogonalLoop=1;jettySize=auto;html=1;exitX=0.5;exitY=1;exitDx=0;exitDy=0;" edge="1" parent="1">
          <mxGeometry relative="1" as="geometry">
            <mxPoint x="414" y="250" as="targetPoint" />
            <mxPoint x="414" y="190" as="sourcePoint" />
          </mxGeometry>
        </mxCell>
        <mxCell id="EL1nMnf3tuZ-VRps-a8O-5" value="Ввод тарифов" style="shape=parallelogram;perimeter=parallelogramPerimeter;whiteSpace=wrap;html=1;fixedSize=1;" vertex="1" parent="1">
          <mxGeometry x="354" y="130" width="120" height="60" as="geometry" />
        </mxCell>
        <mxCell id="EL1nMnf3tuZ-VRps-a8O-8" style="edgeStyle=orthogonalEdgeStyle;rounded=0;orthogonalLoop=1;jettySize=auto;html=1;exitX=0.5;exitY=1;exitDx=0;exitDy=0;entryX=0.5;entryY=0;entryDx=0;entryDy=0;" edge="1" parent="1" source="EL1nMnf3tuZ-VRps-a8O-6" target="EL1nMnf3tuZ-VRps-a8O-7">
          <mxGeometry relative="1" as="geometry" />
        </mxCell>
        <mxCell id="EL1nMnf3tuZ-VRps-a8O-6" value="Ввод выбора маршрута" style="shape=parallelogram;perimeter=parallelogramPerimeter;whiteSpace=wrap;html=1;fixedSize=1;" vertex="1" parent="1">
          <mxGeometry x="354" y="250" width="120" height="60" as="geometry" />
        </mxCell>
        <mxCell id="EL1nMnf3tuZ-VRps-a8O-11" style="edgeStyle=orthogonalEdgeStyle;rounded=0;orthogonalLoop=1;jettySize=auto;html=1;exitX=0;exitY=0.5;exitDx=0;exitDy=0;entryX=0.5;entryY=0;entryDx=0;entryDy=0;" edge="1" parent="1" source="EL1nMnf3tuZ-VRps-a8O-7" target="EL1nMnf3tuZ-VRps-a8O-9">
          <mxGeometry relative="1" as="geometry" />
        </mxCell>
        <mxCell id="EL1nMnf3tuZ-VRps-a8O-7" value="Маршрут = 1?" style="rhombus;whiteSpace=wrap;html=1;" vertex="1" parent="1">
          <mxGeometry x="356" y="370" width="116" height="120" as="geometry" />
        </mxCell>
        <mxCell id="EL1nMnf3tuZ-VRps-a8O-9" value="Стоимость = автобус + трамвай" style="rounded=0;whiteSpace=wrap;html=1;" vertex="1" parent="1">
          <mxGeometry x="200" y="480" width="120" height="60" as="geometry" />
        </mxCell>
        <mxCell id="EL1nMnf3tuZ-VRps-a8O-10" value="Стоимость = метро + автобус + трамвай" style="rounded=0;whiteSpace=wrap;html=1;" vertex="1" parent="1">
          <mxGeometry x="500" y="480" width="120" height="60" as="geometry" />
        </mxCell>
        <mxCell id="EL1nMnf3tuZ-VRps-a8O-12" style="edgeStyle=orthogonalEdgeStyle;rounded=0;orthogonalLoop=1;jettySize=auto;html=1;exitX=1;exitY=0.5;exitDx=0;exitDy=0;entryX=0.637;entryY=0.013;entryDx=0;entryDy=0;entryPerimeter=0;" edge="1" parent="1" source="EL1nMnf3tuZ-VRps-a8O-7" target="EL1nMnf3tuZ-VRps-a8O-10">
          <mxGeometry relative="1" as="geometry" />
        </mxCell>
        <mxCell id="EL1nMnf3tuZ-VRps-a8O-13" value="да" style="text;html=1;align=center;verticalAlign=middle;resizable=0;points=[];autosize=1;strokeColor=none;fillColor=none;" vertex="1" parent="1">
          <mxGeometry x="270" y="388" width="40" height="30" as="geometry" />
        </mxCell>
        <mxCell id="EL1nMnf3tuZ-VRps-a8O-14" value="нет&lt;div&gt;&lt;br&gt;&lt;/div&gt;" style="text;html=1;align=center;verticalAlign=middle;resizable=0;points=[];autosize=1;strokeColor=none;fillColor=none;" vertex="1" parent="1">
          <mxGeometry x="520" y="393" width="40" height="40" as="geometry" />
        </mxCell>
        <mxCell id="EL1nMnf3tuZ-VRps-a8O-22" style="edgeStyle=orthogonalEdgeStyle;rounded=0;orthogonalLoop=1;jettySize=auto;html=1;exitX=0.5;exitY=1;exitDx=0;exitDy=0;entryX=0.5;entryY=0;entryDx=0;entryDy=0;" edge="1" parent="1" source="EL1nMnf3tuZ-VRps-a8O-15" target="EL1nMnf3tuZ-VRps-a8O-21">
          <mxGeometry relative="1" as="geometry" />
        </mxCell>
        <mxCell id="EL1nMnf3tuZ-VRps-a8O-15" value="Вывод стоимости" style="shape=parallelogram;perimeter=parallelogramPerimeter;whiteSpace=wrap;html=1;fixedSize=1;" vertex="1" parent="1">
          <mxGeometry x="356" y="640" width="120" height="60" as="geometry" />
        </mxCell>
        <mxCell id="EL1nMnf3tuZ-VRps-a8O-19" style="edgeStyle=orthogonalEdgeStyle;rounded=0;orthogonalLoop=1;jettySize=auto;html=1;exitX=0.5;exitY=1;exitDx=0;exitDy=0;entryX=0.57;entryY=-0.013;entryDx=0;entryDy=0;entryPerimeter=0;" edge="1" parent="1" source="EL1nMnf3tuZ-VRps-a8O-9" target="EL1nMnf3tuZ-VRps-a8O-15">
          <mxGeometry relative="1" as="geometry" />
        </mxCell>
        <mxCell id="EL1nMnf3tuZ-VRps-a8O-20" style="edgeStyle=orthogonalEdgeStyle;rounded=0;orthogonalLoop=1;jettySize=auto;html=1;exitX=0.5;exitY=1;exitDx=0;exitDy=0;entryX=0.577;entryY=-0.053;entryDx=0;entryDy=0;entryPerimeter=0;" edge="1" parent="1" source="EL1nMnf3tuZ-VRps-a8O-10" target="EL1nMnf3tuZ-VRps-a8O-15">
          <mxGeometry relative="1" as="geometry" />
        </mxCell>
        <mxCell id="EL1nMnf3tuZ-VRps-a8O-21" value="Конец" style="ellipse;whiteSpace=wrap;html=1;" vertex="1" parent="1">
          <mxGeometry x="356" y="760" width="120" height="80" as="geometry" />
        </mxCell>
      </root>
    </mxGraphModel>
  </diagram>
  <diagram id="LRvWKjGWsIf-RDHlSN7q" name="Страница — 2">
    <mxGraphModel dx="868" dy="522" grid="1" gridSize="10" guides="1" tooltips="1" connect="1" arrows="1" fold="1" page="1" pageScale="1" pageWidth="827" pageHeight="1169" math="0" shadow="0">
      <root>
        <mxCell id="0" />
        <mxCell id="1" parent="0" />
        <mxCell id="nnzAXJbinFLvPO3IXk8K-2" style="edgeStyle=orthogonalEdgeStyle;rounded=0;orthogonalLoop=1;jettySize=auto;html=1;exitX=0.5;exitY=1;exitDx=0;exitDy=0;" parent="1" source="nnzAXJbinFLvPO3IXk8K-1" edge="1">
          <mxGeometry relative="1" as="geometry">
            <mxPoint x="430" y="120" as="targetPoint" />
          </mxGeometry>
        </mxCell>
        <mxCell id="nnzAXJbinFLvPO3IXk8K-1" value="Начало" style="ellipse;whiteSpace=wrap;html=1;" parent="1" vertex="1">
          <mxGeometry x="370" width="120" height="80" as="geometry" />
        </mxCell>
        <mxCell id="nnzAXJbinFLvPO3IXk8K-4" style="edgeStyle=orthogonalEdgeStyle;rounded=0;orthogonalLoop=1;jettySize=auto;html=1;exitX=0.5;exitY=1;exitDx=0;exitDy=0;" parent="1" source="nnzAXJbinFLvPO3IXk8K-3" edge="1">
          <mxGeometry relative="1" as="geometry">
            <mxPoint x="430" y="230" as="targetPoint" />
          </mxGeometry>
        </mxCell>
        <mxCell id="nnzAXJbinFLvPO3IXk8K-3" value="Ввод ch" style="shape=parallelogram;perimeter=parallelogramPerimeter;whiteSpace=wrap;html=1;fixedSize=1;" parent="1" vertex="1">
          <mxGeometry x="370" y="120" width="120" height="60" as="geometry" />
        </mxCell>
        <mxCell id="nnzAXJbinFLvPO3IXk8K-6" style="edgeStyle=orthogonalEdgeStyle;rounded=0;orthogonalLoop=1;jettySize=auto;html=1;exitX=0.5;exitY=1;exitDx=0;exitDy=0;" parent="1" source="nnzAXJbinFLvPO3IXk8K-5" edge="1">
          <mxGeometry relative="1" as="geometry">
            <mxPoint x="430" y="360" as="targetPoint" />
          </mxGeometry>
        </mxCell>
        <mxCell id="nnzAXJbinFLvPO3IXk8K-5" value="Определение кода code ← (int)ch" style="rounded=0;whiteSpace=wrap;html=1;" parent="1" vertex="1">
          <mxGeometry x="370" y="230" width="120" height="60" as="geometry" />
        </mxCell>
        <mxCell id="nnzAXJbinFLvPO3IXk8K-8" style="edgeStyle=orthogonalEdgeStyle;rounded=0;orthogonalLoop=1;jettySize=auto;html=1;exitX=0.5;exitY=1;exitDx=0;exitDy=0;" parent="1" source="nnzAXJbinFLvPO3IXk8K-7" edge="1">
          <mxGeometry relative="1" as="geometry">
            <mxPoint x="430" y="560" as="targetPoint" />
          </mxGeometry>
        </mxCell>
        <mxCell id="nnzAXJbinFLvPO3IXk8K-7" value="Вывод символа и кода" style="shape=parallelogram;perimeter=parallelogramPerimeter;whiteSpace=wrap;html=1;fixedSize=1;" parent="1" vertex="1">
          <mxGeometry x="355" y="360" width="150" height="90" as="geometry" />
        </mxCell>
        <mxCell id="nnzAXJbinFLvPO3IXk8K-13" style="edgeStyle=orthogonalEdgeStyle;rounded=0;orthogonalLoop=1;jettySize=auto;html=1;exitX=0.5;exitY=1;exitDx=0;exitDy=0;" parent="1" source="nnzAXJbinFLvPO3IXk8K-9" edge="1">
          <mxGeometry relative="1" as="geometry">
            <mxPoint x="430" y="760" as="targetPoint" />
          </mxGeometry>
        </mxCell>
        <mxCell id="nnzAXJbinFLvPO3IXk8K-9" value="ch ∈ [&#39;0&#39;..&#39;9&#39;]?" style="rhombus;whiteSpace=wrap;html=1;" parent="1" vertex="1">
          <mxGeometry x="375" y="560" width="110" height="110" as="geometry" />
        </mxCell>
        <mxCell id="nnzAXJbinFLvPO3IXk8K-37" style="edgeStyle=orthogonalEdgeStyle;rounded=0;orthogonalLoop=1;jettySize=auto;html=1;exitX=0.5;exitY=1;exitDx=0;exitDy=0;" parent="1" source="nnzAXJbinFLvPO3IXk8K-11" edge="1">
          <mxGeometry relative="1" as="geometry">
            <mxPoint x="430" y="1210" as="targetPoint" />
            <Array as="points">
              <mxPoint x="640" y="1210" />
            </Array>
          </mxGeometry>
        </mxCell>
        <mxCell id="nnzAXJbinFLvPO3IXk8K-11" value="Вывод: &quot;Цифра&quot;" style="shape=parallelogram;perimeter=parallelogramPerimeter;whiteSpace=wrap;html=1;fixedSize=1;" parent="1" vertex="1">
          <mxGeometry x="580" y="578" width="120" height="60" as="geometry" />
        </mxCell>
        <mxCell id="nnzAXJbinFLvPO3IXk8K-12" value="да" style="text;html=1;align=center;verticalAlign=middle;resizable=0;points=[];autosize=1;strokeColor=none;fillColor=none;" parent="1" vertex="1">
          <mxGeometry x="520" y="585" width="40" height="30" as="geometry" />
        </mxCell>
        <mxCell id="nnzAXJbinFLvPO3IXk8K-14" value="нет" style="text;html=1;align=center;verticalAlign=middle;resizable=0;points=[];autosize=1;strokeColor=none;fillColor=none;" parent="1" vertex="1">
          <mxGeometry x="430" y="698" width="40" height="30" as="geometry" />
        </mxCell>
        <mxCell id="nnzAXJbinFLvPO3IXk8K-16" style="edgeStyle=orthogonalEdgeStyle;rounded=0;orthogonalLoop=1;jettySize=auto;html=1;exitX=0;exitY=0.5;exitDx=0;exitDy=0;" parent="1" source="nnzAXJbinFLvPO3IXk8K-15" edge="1">
          <mxGeometry relative="1" as="geometry">
            <mxPoint x="280" y="815" as="targetPoint" />
          </mxGeometry>
        </mxCell>
        <mxCell id="nnzAXJbinFLvPO3IXk8K-19" style="edgeStyle=orthogonalEdgeStyle;rounded=0;orthogonalLoop=1;jettySize=auto;html=1;exitX=0.5;exitY=1;exitDx=0;exitDy=0;" parent="1" source="nnzAXJbinFLvPO3IXk8K-15" edge="1">
          <mxGeometry relative="1" as="geometry">
            <mxPoint x="430" y="940" as="targetPoint" />
          </mxGeometry>
        </mxCell>
        <mxCell id="nnzAXJbinFLvPO3IXk8K-15" value="ch ∈ [&#39;A&#39;..&#39;Z&#39;] ∪ [&#39;a&#39;..&#39;z&#39;]?" style="rhombus;whiteSpace=wrap;html=1;" parent="1" vertex="1">
          <mxGeometry x="375" y="760" width="110" height="110" as="geometry" />
        </mxCell>
        <mxCell id="nnzAXJbinFLvPO3IXk8K-17" value="да" style="text;html=1;align=center;verticalAlign=middle;resizable=0;points=[];autosize=1;strokeColor=none;fillColor=none;" parent="1" vertex="1">
          <mxGeometry x="310" y="768" width="40" height="30" as="geometry" />
        </mxCell>
        <mxCell id="nnzAXJbinFLvPO3IXk8K-32" style="edgeStyle=orthogonalEdgeStyle;rounded=0;orthogonalLoop=1;jettySize=auto;html=1;exitX=0.25;exitY=1;exitDx=0;exitDy=0;" parent="1" source="nnzAXJbinFLvPO3IXk8K-18" edge="1">
          <mxGeometry relative="1" as="geometry">
            <mxPoint x="420" y="1220" as="targetPoint" />
            <Array as="points">
              <mxPoint x="155" y="1220" />
            </Array>
          </mxGeometry>
        </mxCell>
        <mxCell id="nnzAXJbinFLvPO3IXk8K-18" value="Вывод: &quot;Латинская буква&quot;" style="shape=parallelogram;perimeter=parallelogramPerimeter;whiteSpace=wrap;html=1;fixedSize=1;" parent="1" vertex="1">
          <mxGeometry x="110" y="790" width="180" height="60" as="geometry" />
        </mxCell>
        <mxCell id="nnzAXJbinFLvPO3IXk8K-20" value="нет" style="text;html=1;align=center;verticalAlign=middle;resizable=0;points=[];autosize=1;strokeColor=none;fillColor=none;" parent="1" vertex="1">
          <mxGeometry x="420" y="898" width="40" height="30" as="geometry" />
        </mxCell>
        <mxCell id="nnzAXJbinFLvPO3IXk8K-22" style="edgeStyle=orthogonalEdgeStyle;rounded=0;orthogonalLoop=1;jettySize=auto;html=1;exitX=0;exitY=0.5;exitDx=0;exitDy=0;" parent="1" source="nnzAXJbinFLvPO3IXk8K-21" edge="1">
          <mxGeometry relative="1" as="geometry">
            <mxPoint x="300" y="1000" as="targetPoint" />
          </mxGeometry>
        </mxCell>
        <mxCell id="nnzAXJbinFLvPO3IXk8K-25" style="edgeStyle=orthogonalEdgeStyle;rounded=0;orthogonalLoop=1;jettySize=auto;html=1;exitX=0.5;exitY=1;exitDx=0;exitDy=0;" parent="1" source="nnzAXJbinFLvPO3IXk8K-21" edge="1">
          <mxGeometry relative="1" as="geometry">
            <mxPoint x="430" y="1110" as="targetPoint" />
          </mxGeometry>
        </mxCell>
        <mxCell id="nnzAXJbinFLvPO3IXk8K-21" value="code ∈ [192..255] ∪ {168, 184}?" style="rhombus;whiteSpace=wrap;html=1;" parent="1" vertex="1">
          <mxGeometry x="365" y="940" width="130" height="120" as="geometry" />
        </mxCell>
        <mxCell id="nnzAXJbinFLvPO3IXk8K-23" value="да&lt;div&gt;&lt;br&gt;&lt;/div&gt;" style="text;html=1;align=center;verticalAlign=middle;resizable=0;points=[];autosize=1;strokeColor=none;fillColor=none;" parent="1" vertex="1">
          <mxGeometry x="310" y="963" width="40" height="40" as="geometry" />
        </mxCell>
        <mxCell id="nnzAXJbinFLvPO3IXk8K-31" style="edgeStyle=orthogonalEdgeStyle;rounded=0;orthogonalLoop=1;jettySize=auto;html=1;exitX=0.5;exitY=1;exitDx=0;exitDy=0;" parent="1" source="nnzAXJbinFLvPO3IXk8K-24" edge="1">
          <mxGeometry relative="1" as="geometry">
            <mxPoint x="420" y="1200" as="targetPoint" />
            <Array as="points">
              <mxPoint x="250" y="1200" />
              <mxPoint x="365" y="1200" />
            </Array>
          </mxGeometry>
        </mxCell>
        <mxCell id="nnzAXJbinFLvPO3IXk8K-24" value="Вывод: &quot;Русская буква&quot;" style="shape=parallelogram;perimeter=parallelogramPerimeter;whiteSpace=wrap;html=1;fixedSize=1;" parent="1" vertex="1">
          <mxGeometry x="190" y="970" width="120" height="60" as="geometry" />
        </mxCell>
        <mxCell id="nnzAXJbinFLvPO3IXk8K-26" value="нет" style="text;html=1;align=center;verticalAlign=middle;resizable=0;points=[];autosize=1;strokeColor=none;fillColor=none;" parent="1" vertex="1">
          <mxGeometry x="420" y="1068" width="40" height="30" as="geometry" />
        </mxCell>
        <mxCell id="nnzAXJbinFLvPO3IXk8K-29" style="edgeStyle=orthogonalEdgeStyle;rounded=0;orthogonalLoop=1;jettySize=auto;html=1;exitX=0.5;exitY=1;exitDx=0;exitDy=0;" parent="1" source="nnzAXJbinFLvPO3IXk8K-28" edge="1">
          <mxGeometry relative="1" as="geometry">
            <mxPoint x="425" y="1240" as="targetPoint" />
          </mxGeometry>
        </mxCell>
        <mxCell id="nnzAXJbinFLvPO3IXk8K-28" value="Вывод: &quot;Другой символ&quot;" style="shape=parallelogram;perimeter=parallelogramPerimeter;whiteSpace=wrap;html=1;fixedSize=1;" parent="1" vertex="1">
          <mxGeometry x="365" y="1109" width="120" height="60" as="geometry" />
        </mxCell>
        <mxCell id="nnzAXJbinFLvPO3IXk8K-30" value="Конец" style="ellipse;whiteSpace=wrap;html=1;" parent="1" vertex="1">
          <mxGeometry x="365" y="1240" width="120" height="60" as="geometry" />
        </mxCell>
        <mxCell id="nnzAXJbinFLvPO3IXk8K-36" style="edgeStyle=orthogonalEdgeStyle;rounded=0;orthogonalLoop=1;jettySize=auto;html=1;exitX=1;exitY=0.5;exitDx=0;exitDy=0;entryX=0.05;entryY=0.62;entryDx=0;entryDy=0;entryPerimeter=0;" parent="1" source="nnzAXJbinFLvPO3IXk8K-9" target="nnzAXJbinFLvPO3IXk8K-11" edge="1">
          <mxGeometry relative="1" as="geometry" />
        </mxCell>
      </root>
    </mxGraphModel>
  </diagram>
  <diagram id="Jf8I3qr7E0jf03mxUOM4" name="Страница — 3">
    <mxGraphModel dx="1603" dy="963" grid="1" gridSize="10" guides="1" tooltips="1" connect="1" arrows="1" fold="1" page="1" pageScale="1" pageWidth="827" pageHeight="1169" math="0" shadow="0">
      <root>
        <mxCell id="0" />
        <mxCell id="1" parent="0" />
        <mxCell id="j_OIQ3NzRwDUjEvJdPcN-2" style="edgeStyle=orthogonalEdgeStyle;rounded=0;orthogonalLoop=1;jettySize=auto;html=1;exitX=0.5;exitY=1;exitDx=0;exitDy=0;" edge="1" parent="1" source="j_OIQ3NzRwDUjEvJdPcN-1">
          <mxGeometry relative="1" as="geometry">
            <mxPoint x="450" y="140" as="targetPoint" />
          </mxGeometry>
        </mxCell>
        <mxCell id="j_OIQ3NzRwDUjEvJdPcN-1" value="Начало" style="ellipse;whiteSpace=wrap;html=1;" vertex="1" parent="1">
          <mxGeometry x="390" width="120" height="80" as="geometry" />
        </mxCell>
        <mxCell id="j_OIQ3NzRwDUjEvJdPcN-4" style="edgeStyle=orthogonalEdgeStyle;rounded=0;orthogonalLoop=1;jettySize=auto;html=1;exitX=0.5;exitY=1;exitDx=0;exitDy=0;" edge="1" parent="1" source="j_OIQ3NzRwDUjEvJdPcN-3">
          <mxGeometry relative="1" as="geometry">
            <mxPoint x="450" y="280" as="targetPoint" />
          </mxGeometry>
        </mxCell>
        <mxCell id="j_OIQ3NzRwDUjEvJdPcN-3" value="Ввод фамилии" style="shape=parallelogram;perimeter=parallelogramPerimeter;whiteSpace=wrap;html=1;fixedSize=1;" vertex="1" parent="1">
          <mxGeometry x="390" y="140" width="120" height="60" as="geometry" />
        </mxCell>
        <mxCell id="j_OIQ3NzRwDUjEvJdPcN-6" style="edgeStyle=orthogonalEdgeStyle;rounded=0;orthogonalLoop=1;jettySize=auto;html=1;exitX=0.5;exitY=1;exitDx=0;exitDy=0;entryX=0.5;entryY=0;entryDx=0;entryDy=0;" edge="1" parent="1" source="j_OIQ3NzRwDUjEvJdPcN-5" target="j_OIQ3NzRwDUjEvJdPcN-7">
          <mxGeometry relative="1" as="geometry">
            <mxPoint x="450" y="430" as="targetPoint" />
          </mxGeometry>
        </mxCell>
        <mxCell id="j_OIQ3NzRwDUjEvJdPcN-5" value="Взять первые 5 букв" style="rounded=0;whiteSpace=wrap;html=1;" vertex="1" parent="1">
          <mxGeometry x="390" y="280" width="120" height="60" as="geometry" />
        </mxCell>
        <mxCell id="j_OIQ3NzRwDUjEvJdPcN-8" style="edgeStyle=orthogonalEdgeStyle;rounded=0;orthogonalLoop=1;jettySize=auto;html=1;exitX=0.5;exitY=1;exitDx=0;exitDy=0;" edge="1" parent="1" source="j_OIQ3NzRwDUjEvJdPcN-7">
          <mxGeometry relative="1" as="geometry">
            <mxPoint x="450" y="580" as="targetPoint" />
          </mxGeometry>
        </mxCell>
        <mxCell id="iXRgi7ivzerL323C6f_s-1" style="edgeStyle=orthogonalEdgeStyle;rounded=0;orthogonalLoop=1;jettySize=auto;html=1;exitX=1;exitY=0.5;exitDx=0;exitDy=0;" edge="1" parent="1" source="j_OIQ3NzRwDUjEvJdPcN-7">
          <mxGeometry relative="1" as="geometry">
            <mxPoint x="640" y="470" as="targetPoint" />
          </mxGeometry>
        </mxCell>
        <mxCell id="j_OIQ3NzRwDUjEvJdPcN-7" value="Для i = 1 до 5&amp;nbsp;" style="shape=hexagon;perimeter=hexagonPerimeter2;whiteSpace=wrap;html=1;fixedSize=1;" vertex="1" parent="1">
          <mxGeometry x="294" y="430" width="120" height="80" as="geometry" />
        </mxCell>
        <mxCell id="j_OIQ3NzRwDUjEvJdPcN-10" style="edgeStyle=orthogonalEdgeStyle;rounded=0;orthogonalLoop=1;jettySize=auto;html=1;exitX=0.5;exitY=1;exitDx=0;exitDy=0;" edge="1" parent="1" source="j_OIQ3NzRwDUjEvJdPcN-9">
          <mxGeometry relative="1" as="geometry">
            <mxPoint x="450" y="730" as="targetPoint" />
          </mxGeometry>
        </mxCell>
        <mxCell id="j_OIQ3NzRwDUjEvJdPcN-9" value="&lt;div&gt;Определить код&lt;span style=&quot;background-color: transparent; color: light-dark(rgb(0, 0, 0), rgb(255, 255, 255));&quot;&gt;&amp;nbsp;прописной буквы[i]&amp;nbsp;&lt;/span&gt;&lt;/div&gt;" style="rounded=0;whiteSpace=wrap;html=1;" vertex="1" parent="1">
          <mxGeometry x="367.5" y="580" width="165" height="80" as="geometry" />
        </mxCell>
        <mxCell id="j_OIQ3NzRwDUjEvJdPcN-12" style="edgeStyle=orthogonalEdgeStyle;rounded=0;orthogonalLoop=1;jettySize=auto;html=1;exitX=0.5;exitY=1;exitDx=0;exitDy=0;" edge="1" parent="1" source="j_OIQ3NzRwDUjEvJdPcN-11">
          <mxGeometry relative="1" as="geometry">
            <mxPoint x="450" y="860" as="targetPoint" />
          </mxGeometry>
        </mxCell>
        <mxCell id="j_OIQ3NzRwDUjEvJdPcN-11" value="Определить код&lt;span style=&quot;color: light-dark(rgb(0, 0, 0), rgb(255, 255, 255)); background-color: transparent;&quot;&gt;&amp;nbsp;строчной буквы буквы[i]&amp;nbsp;&lt;/span&gt;" style="rounded=0;whiteSpace=wrap;html=1;" vertex="1" parent="1">
          <mxGeometry x="380" y="730" width="140" height="80" as="geometry" />
        </mxCell>
        <mxCell id="j_OIQ3NzRwDUjEvJdPcN-14" style="edgeStyle=orthogonalEdgeStyle;rounded=0;orthogonalLoop=1;jettySize=auto;html=1;exitX=0.5;exitY=1;exitDx=0;exitDy=0;entryX=0.5;entryY=0;entryDx=0;entryDy=0;" edge="1" parent="1" source="j_OIQ3NzRwDUjEvJdPcN-13" target="j_OIQ3NzRwDUjEvJdPcN-15">
          <mxGeometry relative="1" as="geometry">
            <mxPoint x="450" y="990" as="targetPoint" />
          </mxGeometry>
        </mxCell>
        <mxCell id="j_OIQ3NzRwDUjEvJdPcN-13" value="дельта = code_lower - code_upper" style="rounded=0;whiteSpace=wrap;html=1;" vertex="1" parent="1">
          <mxGeometry x="390" y="870" width="120" height="60" as="geometry" />
        </mxCell>
        <mxCell id="j_OIQ3NzRwDUjEvJdPcN-16" style="edgeStyle=orthogonalEdgeStyle;rounded=0;orthogonalLoop=1;jettySize=auto;html=1;exitX=0.5;exitY=1;exitDx=0;exitDy=0;entryX=0;entryY=0.5;entryDx=0;entryDy=0;" edge="1" parent="1" source="j_OIQ3NzRwDUjEvJdPcN-15" target="j_OIQ3NzRwDUjEvJdPcN-7">
          <mxGeometry relative="1" as="geometry">
            <mxPoint x="280" y="470" as="targetPoint" />
          </mxGeometry>
        </mxCell>
        <mxCell id="j_OIQ3NzRwDUjEvJdPcN-15" value="Вывести букву[i], дельта" style="rounded=0;whiteSpace=wrap;html=1;" vertex="1" parent="1">
          <mxGeometry x="340" y="1010" width="120" height="60" as="geometry" />
        </mxCell>
        <mxCell id="iXRgi7ivzerL323C6f_s-2" value="Конец" style="ellipse;whiteSpace=wrap;html=1;" vertex="1" parent="1">
          <mxGeometry x="640" y="430" width="120" height="80" as="geometry" />
        </mxCell>
      </root>
    </mxGraphModel>
  </diagram>
  <diagram id="k0jkFid5smjU6R3UDL7Y" name="Страница — 4">
    <mxGraphModel dx="1042" dy="626" grid="1" gridSize="10" guides="1" tooltips="1" connect="1" arrows="1" fold="1" page="1" pageScale="1" pageWidth="827" pageHeight="1169" math="0" shadow="0">
      <root>
        <mxCell id="0" />
        <mxCell id="1" parent="0" />
        <mxCell id="cysZgVmKsS-KhmyDh-oP-2" style="edgeStyle=orthogonalEdgeStyle;rounded=0;orthogonalLoop=1;jettySize=auto;html=1;exitX=0.5;exitY=1;exitDx=0;exitDy=0;" edge="1" parent="1" source="cysZgVmKsS-KhmyDh-oP-1">
          <mxGeometry relative="1" as="geometry">
            <mxPoint x="440" y="160" as="targetPoint" />
          </mxGeometry>
        </mxCell>
        <mxCell id="cysZgVmKsS-KhmyDh-oP-1" value="Начало" style="ellipse;whiteSpace=wrap;html=1;" vertex="1" parent="1">
          <mxGeometry x="380" width="120" height="80" as="geometry" />
        </mxCell>
        <mxCell id="cysZgVmKsS-KhmyDh-oP-4" style="edgeStyle=orthogonalEdgeStyle;rounded=0;orthogonalLoop=1;jettySize=auto;html=1;exitX=0.5;exitY=1;exitDx=0;exitDy=0;" edge="1" parent="1" source="cysZgVmKsS-KhmyDh-oP-3">
          <mxGeometry relative="1" as="geometry">
            <mxPoint x="440" y="270" as="targetPoint" />
          </mxGeometry>
        </mxCell>
        <mxCell id="cysZgVmKsS-KhmyDh-oP-3" value="Ввод буквы ch" style="shape=parallelogram;perimeter=parallelogramPerimeter;whiteSpace=wrap;html=1;fixedSize=1;" vertex="1" parent="1">
          <mxGeometry x="380" y="160" width="120" height="60" as="geometry" />
        </mxCell>
        <mxCell id="cysZgVmKsS-KhmyDh-oP-6" style="edgeStyle=orthogonalEdgeStyle;rounded=0;orthogonalLoop=1;jettySize=auto;html=1;exitX=0.5;exitY=1;exitDx=0;exitDy=0;" edge="1" parent="1" source="cysZgVmKsS-KhmyDh-oP-5">
          <mxGeometry relative="1" as="geometry">
            <mxPoint x="440" y="390" as="targetPoint" />
          </mxGeometry>
        </mxCell>
        <mxCell id="cysZgVmKsS-KhmyDh-oP-5" value="Определение кода символа" style="rounded=0;whiteSpace=wrap;html=1;" vertex="1" parent="1">
          <mxGeometry x="380" y="270" width="120" height="60" as="geometry" />
        </mxCell>
        <mxCell id="cysZgVmKsS-KhmyDh-oP-8" style="edgeStyle=orthogonalEdgeStyle;rounded=0;orthogonalLoop=1;jettySize=auto;html=1;exitX=0;exitY=0.5;exitDx=0;exitDy=0;" edge="1" parent="1" source="cysZgVmKsS-KhmyDh-oP-7">
          <mxGeometry relative="1" as="geometry">
            <mxPoint x="280" y="460" as="targetPoint" />
          </mxGeometry>
        </mxCell>
        <mxCell id="cysZgVmKsS-KhmyDh-oP-11" style="edgeStyle=orthogonalEdgeStyle;rounded=0;orthogonalLoop=1;jettySize=auto;html=1;exitX=0.5;exitY=1;exitDx=0;exitDy=0;" edge="1" parent="1" source="cysZgVmKsS-KhmyDh-oP-7">
          <mxGeometry relative="1" as="geometry">
            <mxPoint x="440" y="610" as="targetPoint" />
          </mxGeometry>
        </mxCell>
        <mxCell id="cysZgVmKsS-KhmyDh-oP-7" value="латинская прописная?" style="rhombus;whiteSpace=wrap;html=1;" vertex="1" parent="1">
          <mxGeometry x="360" y="390" width="160" height="140" as="geometry" />
        </mxCell>
        <mxCell id="cysZgVmKsS-KhmyDh-oP-9" value="да" style="text;html=1;align=center;verticalAlign=middle;resizable=0;points=[];autosize=1;strokeColor=none;fillColor=none;" vertex="1" parent="1">
          <mxGeometry x="310" y="428" width="40" height="30" as="geometry" />
        </mxCell>
        <mxCell id="cysZgVmKsS-KhmyDh-oP-30" style="edgeStyle=orthogonalEdgeStyle;rounded=0;orthogonalLoop=1;jettySize=auto;html=1;exitX=0;exitY=0.5;exitDx=0;exitDy=0;entryX=0.25;entryY=1;entryDx=0;entryDy=0;" edge="1" parent="1" source="cysZgVmKsS-KhmyDh-oP-10" target="cysZgVmKsS-KhmyDh-oP-26">
          <mxGeometry relative="1" as="geometry">
            <Array as="points">
              <mxPoint x="140" y="460" />
              <mxPoint x="140" y="1230" />
              <mxPoint x="400" y="1230" />
            </Array>
          </mxGeometry>
        </mxCell>
        <mxCell id="cysZgVmKsS-KhmyDh-oP-10" value="new_code = code + 32" style="rounded=0;whiteSpace=wrap;html=1;" vertex="1" parent="1">
          <mxGeometry x="160" y="430" width="120" height="60" as="geometry" />
        </mxCell>
        <mxCell id="cysZgVmKsS-KhmyDh-oP-12" value="нет" style="text;html=1;align=center;verticalAlign=middle;resizable=0;points=[];autosize=1;strokeColor=none;fillColor=none;" vertex="1" parent="1">
          <mxGeometry x="440" y="555" width="40" height="30" as="geometry" />
        </mxCell>
        <mxCell id="cysZgVmKsS-KhmyDh-oP-14" style="edgeStyle=orthogonalEdgeStyle;rounded=0;orthogonalLoop=1;jettySize=auto;html=1;exitX=0;exitY=0.5;exitDx=0;exitDy=0;" edge="1" parent="1" source="cysZgVmKsS-KhmyDh-oP-13">
          <mxGeometry relative="1" as="geometry">
            <mxPoint x="310" y="670" as="targetPoint" />
          </mxGeometry>
        </mxCell>
        <mxCell id="cysZgVmKsS-KhmyDh-oP-17" style="edgeStyle=orthogonalEdgeStyle;rounded=0;orthogonalLoop=1;jettySize=auto;html=1;exitX=0.5;exitY=1;exitDx=0;exitDy=0;" edge="1" parent="1" source="cysZgVmKsS-KhmyDh-oP-13">
          <mxGeometry relative="1" as="geometry">
            <mxPoint x="440" y="810" as="targetPoint" />
          </mxGeometry>
        </mxCell>
        <mxCell id="cysZgVmKsS-KhmyDh-oP-13" value="русская прописная?" style="rhombus;whiteSpace=wrap;html=1;" vertex="1" parent="1">
          <mxGeometry x="370" y="610" width="140" height="120" as="geometry" />
        </mxCell>
        <mxCell id="cysZgVmKsS-KhmyDh-oP-15" value="да&lt;div&gt;&lt;br&gt;&lt;/div&gt;" style="text;html=1;align=center;verticalAlign=middle;resizable=0;points=[];autosize=1;strokeColor=none;fillColor=none;" vertex="1" parent="1">
          <mxGeometry x="310" y="633" width="40" height="40" as="geometry" />
        </mxCell>
        <mxCell id="cysZgVmKsS-KhmyDh-oP-29" style="edgeStyle=orthogonalEdgeStyle;rounded=0;orthogonalLoop=1;jettySize=auto;html=1;exitX=0;exitY=0.5;exitDx=0;exitDy=0;entryX=0;entryY=0.5;entryDx=0;entryDy=0;" edge="1" parent="1" source="cysZgVmKsS-KhmyDh-oP-16" target="cysZgVmKsS-KhmyDh-oP-26">
          <mxGeometry relative="1" as="geometry" />
        </mxCell>
        <mxCell id="cysZgVmKsS-KhmyDh-oP-16" value="new_code = code + 32" style="rounded=0;whiteSpace=wrap;html=1;" vertex="1" parent="1">
          <mxGeometry x="190" y="640" width="120" height="60" as="geometry" />
        </mxCell>
        <mxCell id="cysZgVmKsS-KhmyDh-oP-18" value="нет" style="text;html=1;align=center;verticalAlign=middle;resizable=0;points=[];autosize=1;strokeColor=none;fillColor=none;" vertex="1" parent="1">
          <mxGeometry x="440" y="758" width="40" height="30" as="geometry" />
        </mxCell>
        <mxCell id="cysZgVmKsS-KhmyDh-oP-20" style="edgeStyle=orthogonalEdgeStyle;rounded=0;orthogonalLoop=1;jettySize=auto;html=1;exitX=0;exitY=0.5;exitDx=0;exitDy=0;" edge="1" parent="1" source="cysZgVmKsS-KhmyDh-oP-19">
          <mxGeometry relative="1" as="geometry">
            <mxPoint x="310" y="880" as="targetPoint" />
          </mxGeometry>
        </mxCell>
        <mxCell id="cysZgVmKsS-KhmyDh-oP-23" style="edgeStyle=orthogonalEdgeStyle;rounded=0;orthogonalLoop=1;jettySize=auto;html=1;exitX=1;exitY=0.5;exitDx=0;exitDy=0;" edge="1" parent="1" source="cysZgVmKsS-KhmyDh-oP-19">
          <mxGeometry relative="1" as="geometry">
            <mxPoint x="580" y="880" as="targetPoint" />
          </mxGeometry>
        </mxCell>
        <mxCell id="cysZgVmKsS-KhmyDh-oP-19" value="&lt;strong data-end=&quot;1221&quot; data-start=&quot;1193&quot;&gt;Ё (168)?&lt;/strong&gt;" style="rhombus;whiteSpace=wrap;html=1;" vertex="1" parent="1">
          <mxGeometry x="365" y="810" width="150" height="140" as="geometry" />
        </mxCell>
        <mxCell id="cysZgVmKsS-KhmyDh-oP-21" value="да" style="text;html=1;align=center;verticalAlign=middle;resizable=0;points=[];autosize=1;strokeColor=none;fillColor=none;" vertex="1" parent="1">
          <mxGeometry x="310" y="848" width="40" height="30" as="geometry" />
        </mxCell>
        <mxCell id="cysZgVmKsS-KhmyDh-oP-27" style="edgeStyle=orthogonalEdgeStyle;rounded=0;orthogonalLoop=1;jettySize=auto;html=1;exitX=0.5;exitY=1;exitDx=0;exitDy=0;entryX=0.005;entryY=0.172;entryDx=0;entryDy=0;entryPerimeter=0;" edge="1" parent="1" source="cysZgVmKsS-KhmyDh-oP-22" target="cysZgVmKsS-KhmyDh-oP-26">
          <mxGeometry relative="1" as="geometry">
            <Array as="points">
              <mxPoint x="250" y="1120" />
            </Array>
          </mxGeometry>
        </mxCell>
        <mxCell id="cysZgVmKsS-KhmyDh-oP-22" value="new_code = 184" style="rounded=0;whiteSpace=wrap;html=1;" vertex="1" parent="1">
          <mxGeometry x="190" y="850" width="120" height="60" as="geometry" />
        </mxCell>
        <mxCell id="cysZgVmKsS-KhmyDh-oP-24" value="нет" style="text;html=1;align=center;verticalAlign=middle;resizable=0;points=[];autosize=1;strokeColor=none;fillColor=none;" vertex="1" parent="1">
          <mxGeometry x="520" y="848" width="40" height="30" as="geometry" />
        </mxCell>
        <mxCell id="cysZgVmKsS-KhmyDh-oP-28" style="edgeStyle=orthogonalEdgeStyle;rounded=0;orthogonalLoop=1;jettySize=auto;html=1;exitX=0.5;exitY=1;exitDx=0;exitDy=0;entryX=1;entryY=0.5;entryDx=0;entryDy=0;" edge="1" parent="1" source="cysZgVmKsS-KhmyDh-oP-25" target="cysZgVmKsS-KhmyDh-oP-26">
          <mxGeometry relative="1" as="geometry" />
        </mxCell>
        <mxCell id="cysZgVmKsS-KhmyDh-oP-25" value="new_code = code" style="rounded=0;whiteSpace=wrap;html=1;" vertex="1" parent="1">
          <mxGeometry x="580" y="850" width="120" height="60" as="geometry" />
        </mxCell>
        <mxCell id="cysZgVmKsS-KhmyDh-oP-31" style="edgeStyle=orthogonalEdgeStyle;rounded=0;orthogonalLoop=1;jettySize=auto;html=1;exitX=0.5;exitY=1;exitDx=0;exitDy=0;" edge="1" parent="1" source="cysZgVmKsS-KhmyDh-oP-26">
          <mxGeometry relative="1" as="geometry">
            <mxPoint x="430" y="1280" as="targetPoint" />
          </mxGeometry>
        </mxCell>
        <mxCell id="cysZgVmKsS-KhmyDh-oP-26" value="Преобразовать new_code в символ" style="rounded=0;whiteSpace=wrap;html=1;" vertex="1" parent="1">
          <mxGeometry x="370" y="1110" width="120" height="60" as="geometry" />
        </mxCell>
        <mxCell id="cysZgVmKsS-KhmyDh-oP-33" style="edgeStyle=orthogonalEdgeStyle;rounded=0;orthogonalLoop=1;jettySize=auto;html=1;exitX=0.5;exitY=1;exitDx=0;exitDy=0;" edge="1" parent="1" source="cysZgVmKsS-KhmyDh-oP-32">
          <mxGeometry relative="1" as="geometry">
            <mxPoint x="430" y="1420" as="targetPoint" />
          </mxGeometry>
        </mxCell>
        <mxCell id="cysZgVmKsS-KhmyDh-oP-32" value="Вывод результата" style="shape=parallelogram;perimeter=parallelogramPerimeter;whiteSpace=wrap;html=1;fixedSize=1;" vertex="1" parent="1">
          <mxGeometry x="370" y="1280" width="120" height="60" as="geometry" />
        </mxCell>
        <mxCell id="cysZgVmKsS-KhmyDh-oP-34" value="Конец" style="ellipse;whiteSpace=wrap;html=1;" vertex="1" parent="1">
          <mxGeometry x="370" y="1420" width="120" height="80" as="geometry" />
        </mxCell>
      </root>
    </mxGraphModel>
  </diagram>
</mxfile>
